<?xml version="1.0" encoding="UTF-8"?>
<svg xmlns="http://www.w3.org/2000/svg" xmlns:xlink="http://www.w3.org/1999/xlink" width="16pt" height="15pt" viewBox="0 0 16 15" version="1.1">
<g id="surface1">
<path style=" stroke:none;fill-rule:nonzero;fill:rgb(0%,0%,0%);fill-opacity:1;" d="M 9.792969 1.625 C 9.71875 1.628906 9.609375 1.640625 9.550781 1.648438 C 9.488281 1.65625 9.417969 1.664062 9.394531 1.667969 C 9.371094 1.667969 9.324219 1.679688 9.289062 1.6875 C 9.253906 1.695312 9.214844 1.703125 9.203125 1.703125 C 9.039062 1.730469 8.714844 1.828125 8.488281 1.921875 C 8.382812 1.964844 8.164062 2.066406 8.109375 2.101562 C 8.089844 2.113281 8.042969 2.140625 8.003906 2.160156 C 7.84375 2.25 7.578125 2.433594 7.460938 2.535156 C 7.34375 2.632812 7.042969 2.929688 6.988281 2.996094 C 6.980469 3.007812 6.949219 3.042969 6.917969 3.078125 C 6.890625 3.113281 6.851562 3.160156 6.835938 3.183594 C 6.820312 3.207031 6.777344 3.265625 6.742188 3.3125 C 6.6875 3.390625 6.503906 3.691406 6.503906 3.703125 C 6.503906 3.707031 6.488281 3.742188 6.464844 3.785156 C 6.339844 4.046875 6.277344 4.214844 6.199219 4.496094 C 6.164062 4.632812 6.152344 4.714844 6.125 4.90625 C 6.097656 5.113281 6.085938 5.265625 6.085938 5.390625 C 6.085938 5.539062 6.121094 5.929688 6.144531 6.027344 C 6.152344 6.046875 6.160156 6.097656 6.167969 6.136719 C 6.191406 6.246094 6.21875 6.359375 6.238281 6.414062 C 6.292969 6.59375 6.34375 6.730469 6.394531 6.84375 C 6.40625 6.863281 6.417969 6.894531 6.425781 6.910156 C 6.480469 7.046875 6.675781 7.371094 6.808594 7.558594 C 6.980469 7.792969 7.316406 8.136719 7.523438 8.289062 C 7.542969 8.304688 7.585938 8.335938 7.613281 8.359375 C 7.753906 8.46875 8.0625 8.65625 8.269531 8.753906 C 8.527344 8.878906 8.878906 9 9.105469 9.046875 C 9.113281 9.046875 9.148438 9.054688 9.183594 9.0625 C 9.21875 9.070312 9.257812 9.078125 9.273438 9.082031 C 9.390625 9.101562 9.484375 9.117188 9.503906 9.117188 C 9.515625 9.117188 9.550781 9.121094 9.578125 9.128906 C 9.710938 9.148438 10.039062 9.15625 10.234375 9.144531 C 10.339844 9.140625 10.449219 9.132812 10.472656 9.128906 C 10.5 9.125 10.542969 9.121094 10.566406 9.121094 C 10.65625 9.109375 10.785156 9.089844 10.976562 9.046875 C 11.042969 9.03125 11.199219 8.992188 11.238281 8.976562 C 11.265625 8.96875 11.304688 8.957031 11.324219 8.949219 C 11.363281 8.9375 11.527344 8.878906 11.597656 8.847656 C 11.617188 8.839844 11.648438 8.828125 11.667969 8.820312 C 11.730469 8.796875 11.960938 8.683594 12.0625 8.621094 C 12.207031 8.539062 12.429688 8.394531 12.484375 8.347656 C 12.492188 8.339844 12.519531 8.316406 12.550781 8.296875 C 12.703125 8.183594 12.960938 7.9375 13.082031 7.792969 C 13.097656 7.773438 13.128906 7.738281 13.148438 7.714844 C 13.167969 7.691406 13.207031 7.640625 13.238281 7.597656 C 13.269531 7.558594 13.300781 7.515625 13.308594 7.5 C 13.347656 7.457031 13.429688 7.328125 13.429688 7.316406 C 13.429688 7.3125 13.433594 7.308594 13.4375 7.308594 C 13.445312 7.308594 13.449219 7.304688 13.449219 7.296875 C 13.449219 7.292969 13.464844 7.269531 13.480469 7.242188 C 13.511719 7.195312 13.660156 6.910156 13.660156 6.898438 C 13.660156 6.894531 13.671875 6.871094 13.683594 6.84375 C 13.695312 6.816406 13.722656 6.757812 13.738281 6.714844 C 13.757812 6.667969 13.773438 6.621094 13.777344 6.613281 C 13.792969 6.582031 13.855469 6.371094 13.886719 6.261719 C 13.957031 5.984375 14.003906 5.527344 13.988281 5.277344 C 13.976562 5.0625 13.960938 4.898438 13.953125 4.855469 C 13.945312 4.832031 13.9375 4.78125 13.933594 4.742188 C 13.925781 4.707031 13.914062 4.640625 13.902344 4.597656 C 13.890625 4.550781 13.875 4.484375 13.863281 4.4375 C 13.847656 4.371094 13.820312 4.289062 13.773438 4.148438 C 13.753906 4.097656 13.710938 3.988281 13.691406 3.945312 C 13.679688 3.925781 13.664062 3.886719 13.652344 3.863281 C 13.488281 3.511719 13.296875 3.226562 13.023438 2.917969 C 12.964844 2.847656 12.703125 2.601562 12.628906 2.539062 C 12.59375 2.511719 12.558594 2.484375 12.554688 2.480469 C 12.527344 2.453125 12.433594 2.386719 12.308594 2.300781 C 12.210938 2.234375 11.914062 2.066406 11.820312 2.023438 C 11.78125 2.003906 11.726562 1.980469 11.691406 1.964844 C 11.503906 1.875 11.085938 1.742188 10.882812 1.703125 C 10.839844 1.695312 10.753906 1.679688 10.734375 1.675781 C 10.679688 1.664062 10.648438 1.660156 10.566406 1.652344 C 10.515625 1.648438 10.441406 1.636719 10.402344 1.632812 C 10.304688 1.621094 9.953125 1.617188 9.792969 1.625 Z M 10.3125 2.089844 C 10.507812 2.109375 10.625 2.125 10.777344 2.15625 C 12.265625 2.476562 13.359375 3.667969 13.488281 5.113281 C 13.503906 5.273438 13.492188 5.664062 13.472656 5.808594 C 13.417969 6.179688 13.320312 6.492188 13.160156 6.8125 C 12.746094 7.640625 11.960938 8.285156 11.042969 8.546875 C 10.558594 8.6875 10.035156 8.726562 9.539062 8.660156 C 8.148438 8.464844 7.015625 7.496094 6.671875 6.195312 C 6.59375 5.894531 6.566406 5.671875 6.574219 5.320312 C 6.582031 5 6.609375 4.78125 6.683594 4.523438 C 6.902344 3.757812 7.40625 3.085938 8.101562 2.640625 C 8.742188 2.226562 9.554688 2.027344 10.3125 2.089844 Z M 10.3125 2.089844 "/>
<path style=" stroke:none;fill-rule:nonzero;fill:rgb(0%,0%,0%);fill-opacity:1;" d="M 9.367188 2.714844 C 9.359375 2.71875 9.355469 2.722656 9.363281 2.722656 C 9.367188 2.722656 9.378906 2.71875 9.386719 2.714844 C 9.394531 2.710938 9.394531 2.703125 9.390625 2.703125 C 9.386719 2.703125 9.375 2.710938 9.367188 2.714844 Z M 9.367188 2.714844 "/>
<path style=" stroke:none;fill-rule:nonzero;fill:rgb(0%,0%,0%);fill-opacity:1;" d="M 9.273438 2.742188 C 9.222656 2.761719 9.203125 2.777344 9.242188 2.765625 C 9.277344 2.753906 9.34375 2.722656 9.332031 2.722656 C 9.328125 2.722656 9.300781 2.734375 9.273438 2.742188 Z M 9.273438 2.742188 "/>
<path style=" stroke:none;fill-rule:nonzero;fill:rgb(0%,0%,0%);fill-opacity:1;" d="M 9.171875 2.785156 C 9.160156 2.789062 9.152344 2.796875 9.160156 2.796875 C 9.164062 2.796875 9.179688 2.789062 9.191406 2.785156 C 9.207031 2.777344 9.210938 2.769531 9.207031 2.769531 C 9.203125 2.769531 9.1875 2.777344 9.171875 2.785156 Z M 9.171875 2.785156 "/>
<path style=" stroke:none;fill-rule:nonzero;fill:rgb(0%,0%,0%);fill-opacity:1;" d="M 9.125 2.804688 C 9.117188 2.8125 9.113281 2.816406 9.121094 2.816406 C 9.128906 2.816406 9.136719 2.8125 9.140625 2.804688 C 9.148438 2.796875 9.144531 2.796875 9.125 2.804688 Z M 9.125 2.804688 "/>
<path style=" stroke:none;fill-rule:nonzero;fill:rgb(0%,0%,0%);fill-opacity:1;" d="M 9.015625 2.859375 C 8.980469 2.875 8.980469 2.882812 9.019531 2.867188 C 9.035156 2.859375 9.046875 2.851562 9.046875 2.847656 C 9.046875 2.839844 9.046875 2.84375 9.015625 2.859375 Z M 9.015625 2.859375 "/>
<path style=" stroke:none;fill-rule:nonzero;fill:rgb(0%,0%,0%);fill-opacity:1;" d="M 6.628906 4.832031 C 6.628906 4.832031 6.636719 4.839844 6.644531 4.847656 C 6.660156 4.859375 6.660156 4.855469 6.648438 4.84375 C 6.636719 4.828125 6.628906 4.824219 6.628906 4.832031 Z M 6.628906 4.832031 "/>
<path style=" stroke:none;fill-rule:nonzero;fill:rgb(0%,0%,0%);fill-opacity:1;" d="M 6.410156 7.460938 C 6.261719 7.503906 6.175781 7.617188 6.175781 7.761719 C 6.175781 7.84375 6.199219 7.910156 6.257812 7.972656 L 6.304688 8.019531 L 6.175781 8.140625 C 6.101562 8.203125 6.039062 8.257812 6.035156 8.257812 C 6.03125 8.257812 5.992188 8.222656 5.949219 8.175781 L 5.867188 8.097656 L 5.691406 8.261719 C 5.597656 8.347656 4.71875 9.179688 3.738281 10.105469 L 1.953125 11.789062 L 1.90625 11.792969 C 1.664062 11.820312 1.535156 12.101562 1.683594 12.285156 C 1.699219 12.308594 1.898438 12.511719 2.117188 12.738281 C 2.480469 13.109375 2.527344 13.148438 2.578125 13.175781 C 2.800781 13.277344 3.050781 13.132812 3.050781 12.902344 L 3.050781 12.84375 L 4.5 11.476562 C 5.292969 10.722656 6.171875 9.894531 6.445312 9.636719 L 6.941406 9.160156 L 6.847656 9.074219 L 6.753906 8.980469 L 6.886719 8.867188 L 7.015625 8.75 L 7.050781 8.78125 C 7.113281 8.839844 7.183594 8.863281 7.277344 8.863281 C 7.34375 8.863281 7.367188 8.859375 7.414062 8.839844 C 7.601562 8.753906 7.664062 8.523438 7.539062 8.371094 C 7.523438 8.347656 7.40625 8.226562 7.289062 8.105469 C 7.167969 7.984375 6.988281 7.800781 6.886719 7.695312 C 6.730469 7.539062 6.695312 7.507812 6.644531 7.480469 C 6.570312 7.449219 6.472656 7.4375 6.410156 7.460938 Z M 6.410156 7.460938 "/>
<path style=" stroke:none;fill-rule:nonzero;fill:rgb(73.72549%,73.333333%,73.333333%);fill-opacity:1;" d="M 11.484375 7.230469 L 11.484375 5.929688 L 11.9375 5.929688 L 11.9375 7.664062 L 7.847656 7.664062 L 7.847656 5.929688 L 8.300781 5.929688 L 8.300781 7.230469 Z M 11.484375 7.230469 "/>
<path style=" stroke:none;fill-rule:nonzero;fill:rgb(95.686275%,50.196078%,13.72549%);fill-opacity:1;" d="M 8.800781 5.808594 L 11.027344 6.25 L 11.121094 5.824219 L 8.894531 5.378906 Z M 9.09375 4.796875 L 11.15625 5.710938 L 11.34375 5.320312 L 9.285156 4.398438 Z M 9.667969 3.832031 L 11.414062 5.21875 L 11.703125 4.886719 L 9.953125 3.5 Z M 10.796875 2.804688 L 10.429688 3.0625 L 11.785156 4.800781 L 12.148438 4.542969 Z M 8.753906 6.792969 L 11.027344 6.792969 L 11.027344 6.363281 L 8.753906 6.363281 Z M 8.753906 6.792969 "/>
</g>
</svg>
